<svg width="70" height="70" viewBox="0 0 70 70" fill="none" xmlns="http://www.w3.org/2000/svg">
<path fill-rule="evenodd" clip-rule="evenodd" d="M35 0C15.6625 0 0 16.0587 0 35.8853C0 51.7645 10.0187 65.1767 23.9312 69.9314C25.6812 70.2454 26.3375 69.1689 26.3375 68.2269C26.3375 67.3746 26.2938 64.5487 26.2938 61.5433C17.5 63.203 15.225 59.3453 14.525 57.3267C14.1312 56.295 12.425 53.1102 10.9375 52.2579C9.7125 51.5851 7.9625 49.9254 10.8938 49.8805C13.65 49.8357 15.6188 52.4822 16.275 53.5588C19.425 58.9864 24.4563 57.4613 26.4688 56.5193C26.775 54.1868 27.6938 52.6168 28.7 51.7197C20.9125 50.8225 12.775 47.7274 12.775 34.0013C12.775 30.0988 14.1313 26.8691 16.3625 24.3571C16.0125 23.46 14.7875 19.7818 16.7125 14.8475C16.7125 14.8475 19.6437 13.9055 26.3375 18.5258C29.1375 17.7184 32.1125 17.3146 35.0875 17.3146C38.0625 17.3146 41.0375 17.7184 43.8375 18.5258C50.5312 13.8607 53.4625 14.8475 53.4625 14.8475C55.3875 19.7818 54.1625 23.46 53.8125 24.3571C56.0438 26.8691 57.4 30.0539 57.4 34.0013C57.4 47.7723 49.2188 50.8225 41.4313 51.7197C42.7 52.8411 43.7938 54.9942 43.7938 58.3584C43.7938 63.1581 43.75 67.0158 43.75 68.2269C43.75 69.1689 44.4062 70.2903 46.1562 69.9314C59.9813 65.1767 70 51.7197 70 35.8853C70 16.0587 54.3375 0 35 0Z" fill="#B1B1B1"/>
</svg>
